{"title":"Melissa P. (2005) 1080P WEB-DL DD5 1 H 264","uid":13128841,"size":4121409755,"categoryP":"video","categoryS":"hd___movies","magnet":"?xt=urn:btih:f0e86ad09b356265f4b138cb8fcd05764d1a07af&amp;dn=Melissa+P.+%282005%29+1080P+WEB-DL+DD5+1+H+264&amp;tr=udp%3A%2F%2Ftracker.leechers-paradise.org%3A6969&amp;tr=udp%3A%2F%2Fzer0day.ch%3A1337&amp;tr=udp%3A%2F%2Fopen.demonii.com%3A1337&amp;tr=udp%3A%2F%2Ftracker.coppersurfer.tk%3A6969&amp;tr=udp%3A%2F%2Fexodus.desync.com%3A6969","seeders":3,"leechers":4,"uploader":"jmanwf","files":1,"time":1451816415,"description":"Description\r\nThe fictionalized memoir of Melissa P., a Sicilian teenager whose quest for love rapidly devolves into a shocking journey of sexual discovery.\r\n\r\n\r\nVideo\r\nID : 2\r\nFormat : AVC\r\nFormat/Info : Advanced Video Codec\r\nFormat profile :   \r\nFormat settings, CABAC : Yes\r\nFormat settings, ReFrames : 4 frames\r\nFormat settings, GOP : N=2\r\nCodec ID : avc1\r\nCodec ID/Info : Advanced Video Coding\r\nDuration : 1h 37mn\r\nBit rate : 5 099 Kbps\r\nWidth : 1 920 pixels\r\nHeight : 1 080 pixels\r\nDisplay aspect ratio : 16:9\r\nFrame rate mode : Constant\r\nFrame rate : 23.976 fps\r\nColor space : YUV\r\nChroma subsampling : 4:2:0\r\nBit depth : 8 bits\r\nScan type : Progressive\r\nBits/(Pixel*Frame) : 0.103\r\nStream size : 3.49 GiB (91%)\r\nLanguage : English\r\nEncoded date : UTC 2016-01-02 05:25:28\r\nTagged date : UTC 2016-01-02 05:39:03\r\nColor range : Limited\r\nColor primaries : BT.709\r\nTransfer characteristics : BT.709\r\nMatrix coefficients : BT.709\r\n\r\nAudio #1\r\nID : 1\r\nFormat : AAC\r\nFormat/Info : Advanced Audio Codec\r\nFormat profile : LC\r\nCodec ID : 40\r\nDuration : 1h 37mn\r\nBit rate mode : Variable\r\nBit rate : 126 Kbps\r\nMaximum bit rate : 187 Kbps\r\nChannel(s) : 2 channels\r\nChannel positions : Front: L R\r\nSampling rate : 48.0 KHz\r\nCompression mode : Lossy\r\nStream size : 87.9 MiB (2%)\r\nLanguage : Italian\r\nEncoded date : UTC 2016-01-02 05:25:27\r\nTagged date : UTC 2016-01-02 05:39:03\r\n\r\nAudio #2\r\nID : 3\r\nFormat : AC-3\r\nFormat/Info : Audio Coding 3\r\nMode extension : CM (complete main)\r\nFormat settings, Endianness : Big\r\nCodec ID : ac-3\r\nDuration : 1h 37mn\r\nBit rate mode : Constant\r\nBit rate : 384 Kbps\r\nChannel(s) : 6 channels\r\nChannel positions : Front: L C R, Side: L R, LFE\r\nSampling rate : 48.0 KHz\r\nBit depth : 16 bits\r\nCompression mode : Lossy\r\nStream size : 269 MiB (7%)\r\nLanguage : Italian\r\nEncoded date : UTC 2016-01-02 05:25:28\r\nTagged date : UTC 2016-01-02 05:39:03\r\n\r\n \nhttp://s1.postimg.org/bb44g2grj/image.jpg\r\n\r\n\r\n \nhttp://s1.postimg.org/ogo7zx00v/image.jpg","torrent":{"xt":"urn:btih:f0e86ad09b356265f4b138cb8fcd05764d1a07af","amp;dn":"Melissa+P.+%282005%29+1080P+WEB-DL+DD5+1+H+264","amp;tr":["udp%3A%2F%2Ftracker.leechers-paradise.org%3A6969","udp%3A%2F%2Fzer0day.ch%3A1337","udp%3A%2F%2Fopen.demonii.com%3A1337","udp%3A%2F%2Ftracker.coppersurfer.tk%3A6969","udp%3A%2F%2Fexodus.desync.com%3A6969"],"infoHash":"f0e86ad09b356265f4b138cb8fcd05764d1a07af","infoHashBuffer":{"type":"Buffer","data":[240,232,106,208,155,53,98,101,244,177,56,203,143,205,5,118,77,26,7,175]},"announce":[],"urlList":[]}}